<svg xmlns="http://www.w3.org/2000/svg" xmlns:svg="http://www.w3.org/2000/svg" id="svg5612" width="128" height="128" version="1.1"><title id="title6891">Copy/Clone Icon</title><metadata id="metadata5617"/><g id="layer1" transform="translate(0,-924.36215)"><g id="g6783" transform="matrix(0.99829393,0,0,0.99829393,-101.01487,570.9661)"><path id="rect6587" d="m 134.9375,354 c -3.324,0 -6,2.676 -6,6 l 0,96 c 0,3.324 2.676,6 6,6 l 82,0 c 3.324,0 6,-2.676 6,-6 l 0,-62 -40,0 c -3.324,0 -6,-2.676 -6,-6 l 0,-34 -42,0 z" style="fill:#333;fill-opacity:1;stroke:none"/><path id="rect6587-3-9-6-6" d="m 113.65625,374.21875 c -3.324,0 -6,2.676 -6,6 l 0,96 c 0,3.324 2.676,6 6,6 l 82,0 c 3.324,0 6,-2.676 6,-6 l 0,-7 -73,0 c -3.324,0 -6,-2.676 -6,-6 l 0,-89 -9,0 z" style="fill:#333;fill-opacity:1;stroke:none"/><path id="rect6587-3-2-9-2" d="m 180.9375,354 0,30 c 0,3.324 2.676,6 6,6 l 36,0 z" style="fill:#333;fill-opacity:1;stroke:none"/></g></g></svg>